<?xml version="1.0" encoding="utf-8"?>
<!-- Generator: Adobe Illustrator 21.1.0, SVG Export Plug-In . SVG Version: 6.00 Build 0)  -->
<svg version="1.1" id="Capa_1" xmlns="http://www.w3.org/2000/svg" xmlns:xlink="http://www.w3.org/1999/xlink" x="0px" y="0px"
	 viewBox="0 0 400 200" style="enable-background:new 0 0 400 200;" xml:space="preserve">
<style type="text/css">
	.st0{fill:#31C9C5;}
	.st1{font-family:'AvantGardeITCbyBT-Demi';}
	.st2{font-size:162.8286px;}
	.st3{fill:#F70F47;}
	.st4{fill:none;stroke:#31C9C5;stroke-width:2;stroke-miterlimit:10;}
	.st5{fill:none;stroke:#31C9C5;stroke-miterlimit:10;}
	.st6{fill:none;stroke:#31C9C5;stroke-width:0.75;stroke-miterlimit:10;}
	.st7{fill:none;stroke:#F70F47;stroke-width:3;stroke-miterlimit:10;}
</style>
<g>
	<text transform="matrix(1 0 0 1 181.7104 142.6416)" class="st0 st1 st2">ag</text>
</g>
<path class="st3" d="M146.8,191.5c-11,0-20-9-20-20v-85c-1.3-7.7-6.4-25.6-18-32c-14.3-7.9-34.5-6.5-49.2,3.4
	C52.1,63,40,74.6,42.7,95.8c2,16,9.7,27.1,23.5,33.7c0.2,0.1,0.4,0.2,0.7,0.3V93c0-11,9-20,20-20s20,9,20,20v62.3
	c0,5.4-2.2,10.6-6.1,14.3c-3.9,3.8-9.1,5.8-14.5,5.6c-1.9-0.1-19.1-0.8-37.5-9.7c-18.3-8.8-41-27.2-45.7-64.7
	c-3.9-31,8.6-58.7,34.2-76c27.1-18.3,63.6-20.5,91-5.3c32,17.7,37.9,58.4,38.5,63c0.1,0.8,0.2,1.6,0.2,2.5v86.5
	C166.8,182.5,157.9,191.5,146.8,191.5z"/>
<line class="st4" x1="176.9" y1="37.2" x2="394" y2="37.2"/>
<line class="st5" x1="176.9" y1="27.1" x2="394" y2="27.1"/>
<line class="st6" x1="176.9" y1="18" x2="394" y2="18"/>
<line class="st7" x1="176.9" y1="187.6" x2="394" y2="187.6"/>
</svg>
